<svg viewBox="0 0 16 16"><path fill="#828282" d="M2330 5089 c-136 -13 -275 -38 -419 -75 -876 -227 -1578 -929 -1805
-1805 -114 -440 -114 -858 0 -1298 227 -876 929 -1578 1805 -1805 440 -114
858 -114 1298 0 956 248 1697 1060 1855 2034 60 367 44 707 -50 1069 -248 956
-1060 1697 -2034 1855 -213 35 -452 44 -650 25z m580 -94 c810 -123 1498 -623
1855 -1350 115 -233 191 -476 232 -745 24 -160 24 -520 0 -680 -81 -528 -304
-986 -661 -1357 -390 -406 -870 -653 -1436 -740 -160 -24 -520 -24 -680 0
-463 71 -889 260 -1230 545 -471 393 -772 932 -867 1552 -24 160 -24 520 0
680 41 269 117 512 232 745 376 766 1114 1275 1975 1365 120 12 456 4 580 -15z"/>
<path fill="#828282" d="M2375 4899 c-445 -34 -862 -193 -1235 -471 -129 -96 -359 -329 -458
-462 -249 -338 -397 -704 -453 -1126 -16 -122 -16 -438 0 -560 56 -422 204
-788 453 -1126 104 -140 332 -368 472 -472 338 -249 704 -397 1126 -453 122
-16 438 -16 560 0 422 56 788 204 1126 453 133 99 366 329 462 458 441 593
583 1306 401 2017 -73 288 -208 564 -401 823 -91 122 -326 357 -448 448 -476
355 -1026 516 -1605 471z m-1169 -1080 c24 -11 56 -35 71 -52 41 -47 1238
-1719 1246 -1741 5 -12 1 -26 -9 -37 -16 -17 -35 -19 -209 -19 -185 0 -193 1
-243 26 -50 25 -70 51 -673 892 -342 477 -627 880 -633 895 -20 51 2 57 218
57 171 0 194 -2 232 -21z m3144 6 c7 -8 10 -25 8 -37 -3 -13 -251 -358 -553
-767 -302 -410 -548 -750 -548 -756 0 -6 119 -177 264 -381 146 -203 268 -378
272 -388 5 -12 1 -26 -9 -37 -16 -17 -35 -19 -209 -19 -268 0 -250 -10 -441
256 -80 112 -150 202 -154 199 -4 -3 -168 -223 -365 -490 -196 -266 -361 -488
-367 -491 -6 -4 -17 2 -25 12 -20 27 -12 251 11 314 9 25 148 227 311 453 178
246 293 413 288 420 -4 7 -185 260 -402 562 -216 303 -399 563 -405 578 -20
51 2 57 218 57 212 0 246 -8 303 -73 15 -18 147 -198 292 -400 212 -297 266
-366 276 -355 6 7 222 304 479 660 449 623 468 647 518 672 44 22 65 26 139
26 65 0 90 -4 99 -15z"/></svg>
